# xmcd
#
# Track frame offsets:
#	150
#	26722
#	52188
#	75497
#	101725
#	126705
#	151141
#	177615
#	206390
#	225215
#
# Disc length: 3364 seconds
#
# Revision: 1
# Processed by: cddbd v1.5.2PL0 Copyright (c) Steve Scherf et al.
# Submitted via: audiograbber 1.83.01
#
DISCID=810d220a
DTITLE=Graciamania - Gracia Delva
DYEAR=2008
DGENRE=WORLD
TTITLE0=PROFESSIONEL
TTITLE1=EKILIB
TTITLE2=CHAMPAY
TTITLE3=JERUSALEM
TTITLE4=BO LANME
TTITLE5=ANYEN
TTITLE6=LE OU LA
TTITLE7=REZON
TTITLE8=MA BARQUE
TTITLE9=LE OU LA INST
EXTD=
EXTT0=
EXTT1=
EXTT2=
EXTT3=
EXTT4=
EXTT5=
EXTT6=
EXTT7=
EXTT8=
EXTT9=
PLAYORDER=
